<mxfile host="Electron" agent="Mozilla/5.0 (Windows NT 10.0; Win64; x64) AppleWebKit/537.36 (KHTML, like Gecko) draw.io/24.7.17 Chrome/128.0.6613.36 Electron/32.0.1 Safari/537.36" version="24.7.17">
  <diagram name="Page-1" id="e365xk8SoL_oMX2kAQkj">
    <mxGraphModel dx="1221" dy="823" grid="1" gridSize="10" guides="1" tooltips="1" connect="1" arrows="1" fold="1" page="1" pageScale="1" pageWidth="827" pageHeight="1169" math="0" shadow="0">
      <root>
        <mxCell id="0" />
        <mxCell id="1" parent="0" />
        <mxCell id="EqK2TEen8uMbBAs1lIBe-20" value="" style="edgeStyle=orthogonalEdgeStyle;rounded=0;orthogonalLoop=1;jettySize=auto;html=1;" edge="1" parent="1" source="EqK2TEen8uMbBAs1lIBe-2" target="EqK2TEen8uMbBAs1lIBe-19">
          <mxGeometry relative="1" as="geometry" />
        </mxCell>
        <mxCell id="EqK2TEen8uMbBAs1lIBe-2" value="&lt;font style=&quot;font-size: 14px;&quot;&gt;程序开始&lt;/font&gt;" style="ellipse;whiteSpace=wrap;html=1;" vertex="1" parent="1">
          <mxGeometry x="340" y="80" width="120" height="40" as="geometry" />
        </mxCell>
        <mxCell id="EqK2TEen8uMbBAs1lIBe-5" style="edgeStyle=orthogonalEdgeStyle;rounded=0;orthogonalLoop=1;jettySize=auto;html=1;entryX=0;entryY=0.5;entryDx=0;entryDy=0;" edge="1" parent="1" source="EqK2TEen8uMbBAs1lIBe-8" target="EqK2TEen8uMbBAs1lIBe-9">
          <mxGeometry relative="1" as="geometry" />
        </mxCell>
        <mxCell id="EqK2TEen8uMbBAs1lIBe-6" value="&lt;font style=&quot;font-size: 14px;&quot;&gt;否&lt;/font&gt;" style="edgeLabel;html=1;align=center;verticalAlign=middle;resizable=0;points=[];fontFamily=Helvetica;fontSize=11;fontColor=default;labelBackgroundColor=default;fillColor=none;gradientColor=none;" vertex="1" connectable="0" parent="EqK2TEen8uMbBAs1lIBe-5">
          <mxGeometry x="-0.1778" y="3" relative="1" as="geometry">
            <mxPoint y="-7" as="offset" />
          </mxGeometry>
        </mxCell>
        <mxCell id="EqK2TEen8uMbBAs1lIBe-7" style="edgeStyle=orthogonalEdgeStyle;rounded=0;orthogonalLoop=1;jettySize=auto;html=1;exitX=0.5;exitY=1;exitDx=0;exitDy=0;entryX=0.5;entryY=0;entryDx=0;entryDy=0;fontFamily=Helvetica;fontSize=11;fontColor=default;labelBackgroundColor=default;resizable=0;" edge="1" parent="1" source="EqK2TEen8uMbBAs1lIBe-8" target="EqK2TEen8uMbBAs1lIBe-16">
          <mxGeometry relative="1" as="geometry" />
        </mxCell>
        <mxCell id="EqK2TEen8uMbBAs1lIBe-22" value="&lt;font style=&quot;font-size: 14px;&quot;&gt;是&lt;/font&gt;" style="edgeLabel;html=1;align=center;verticalAlign=middle;resizable=0;points=[];" vertex="1" connectable="0" parent="EqK2TEen8uMbBAs1lIBe-7">
          <mxGeometry x="-0.2" y="-2" relative="1" as="geometry">
            <mxPoint x="12" as="offset" />
          </mxGeometry>
        </mxCell>
        <mxCell id="EqK2TEen8uMbBAs1lIBe-8" value="&lt;font style=&quot;font-size: 14px;&quot;&gt;i &amp;lt;= 999&lt;/font&gt;" style="rhombus;whiteSpace=wrap;html=1;" vertex="1" parent="1">
          <mxGeometry x="340" y="240" width="120" height="40" as="geometry" />
        </mxCell>
        <mxCell id="EqK2TEen8uMbBAs1lIBe-9" value="&lt;font style=&quot;font-size: 14px;&quot;&gt;程序结束&lt;/font&gt;" style="ellipse;whiteSpace=wrap;html=1;" vertex="1" parent="1">
          <mxGeometry x="520" y="240" width="120" height="40" as="geometry" />
        </mxCell>
        <mxCell id="EqK2TEen8uMbBAs1lIBe-12" style="edgeStyle=orthogonalEdgeStyle;rounded=0;orthogonalLoop=1;jettySize=auto;html=1;exitX=0.5;exitY=1;exitDx=0;exitDy=0;entryX=0.5;entryY=0;entryDx=0;entryDy=0;fontFamily=Helvetica;fontSize=11;fontColor=default;labelBackgroundColor=default;resizable=0;" edge="1" parent="1" source="EqK2TEen8uMbBAs1lIBe-16" target="EqK2TEen8uMbBAs1lIBe-18">
          <mxGeometry relative="1" as="geometry">
            <mxPoint x="400" y="400" as="targetPoint" />
          </mxGeometry>
        </mxCell>
        <mxCell id="EqK2TEen8uMbBAs1lIBe-13" value="&lt;font style=&quot;font-size: 14px;&quot;&gt;是&lt;/font&gt;" style="edgeLabel;html=1;align=center;verticalAlign=middle;resizable=0;points=[];fontFamily=Helvetica;fontSize=11;fontColor=default;labelBackgroundColor=default;fillColor=none;gradientColor=none;" vertex="1" connectable="0" parent="EqK2TEen8uMbBAs1lIBe-12">
          <mxGeometry x="-0.2333" y="-4" relative="1" as="geometry">
            <mxPoint x="14" as="offset" />
          </mxGeometry>
        </mxCell>
        <mxCell id="EqK2TEen8uMbBAs1lIBe-26" style="edgeStyle=orthogonalEdgeStyle;rounded=0;orthogonalLoop=1;jettySize=auto;html=1;exitX=0;exitY=0.5;exitDx=0;exitDy=0;" edge="1" parent="1" source="EqK2TEen8uMbBAs1lIBe-16">
          <mxGeometry relative="1" as="geometry">
            <mxPoint x="300" y="345" as="targetPoint" />
          </mxGeometry>
        </mxCell>
        <mxCell id="EqK2TEen8uMbBAs1lIBe-27" value="&lt;font style=&quot;font-size: 14px;&quot;&gt;否&lt;/font&gt;" style="edgeLabel;html=1;align=center;verticalAlign=middle;resizable=0;points=[];" vertex="1" connectable="0" parent="EqK2TEen8uMbBAs1lIBe-26">
          <mxGeometry x="-0.1238" y="-2" relative="1" as="geometry">
            <mxPoint y="-13" as="offset" />
          </mxGeometry>
        </mxCell>
        <mxCell id="EqK2TEen8uMbBAs1lIBe-16" value="i * i % 1000 == i" style="rhombus;whiteSpace=wrap;html=1;align=center;verticalAlign=middle;fontFamily=Helvetica;fontSize=14;fontColor=default;labelBackgroundColor=none;resizable=1;fillColor=none;gradientColor=none;movable=1;rotatable=1;deletable=1;editable=1;locked=0;connectable=1;" vertex="1" parent="1">
          <mxGeometry x="335" y="320" width="130" height="50" as="geometry" />
        </mxCell>
        <mxCell id="EqK2TEen8uMbBAs1lIBe-24" style="edgeStyle=orthogonalEdgeStyle;rounded=0;orthogonalLoop=1;jettySize=auto;html=1;exitX=0;exitY=0.5;exitDx=0;exitDy=0;" edge="1" parent="1" source="EqK2TEen8uMbBAs1lIBe-18">
          <mxGeometry relative="1" as="geometry">
            <mxPoint x="400" y="220" as="targetPoint" />
            <Array as="points">
              <mxPoint x="300" y="430" />
              <mxPoint x="300" y="220" />
            </Array>
          </mxGeometry>
        </mxCell>
        <mxCell id="EqK2TEen8uMbBAs1lIBe-18" value="输出c" style="shape=parallelogram;perimeter=parallelogramPerimeter;whiteSpace=wrap;html=1;fixedSize=1;align=center;verticalAlign=middle;fontFamily=Helvetica;fontSize=14;fontColor=default;labelBackgroundColor=default;resizable=1;fillColor=none;gradientColor=none;movable=1;rotatable=1;deletable=1;editable=1;locked=0;connectable=1;" vertex="1" parent="1">
          <mxGeometry x="340" y="410" width="120" height="40" as="geometry" />
        </mxCell>
        <mxCell id="EqK2TEen8uMbBAs1lIBe-21" value="" style="edgeStyle=orthogonalEdgeStyle;rounded=0;orthogonalLoop=1;jettySize=auto;html=1;" edge="1" parent="1" source="EqK2TEen8uMbBAs1lIBe-19" target="EqK2TEen8uMbBAs1lIBe-8">
          <mxGeometry relative="1" as="geometry" />
        </mxCell>
        <mxCell id="EqK2TEen8uMbBAs1lIBe-19" value="&lt;font style=&quot;font-size: 14px;&quot;&gt;初始化变量&lt;br&gt;int i = 100&lt;/font&gt;" style="rounded=0;whiteSpace=wrap;html=1;" vertex="1" parent="1">
          <mxGeometry x="340" y="160" width="120" height="40" as="geometry" />
        </mxCell>
      </root>
    </mxGraphModel>
  </diagram>
</mxfile>
